#!OML:ASF H:\Punching\Project 1\Capture day 1\Session 1\female.ASF
:FULLY-SPECIFIED
:DEGREES
1569
root 1.10942 15.6377 8.75745 12.7662 10.4019 -2.80465
lowerback -2.17678 1.16592 2.00961
upperback -5.73036 1.62593 0.863854
thorax -4.6643 0.752774 -0.263184
lowerneck -10.0018 0.24906 7.7679
upperneck 27.7124 -0.466524 -2.73795
head 10.4931 0.31049 -2.36401
rclavicle 5.01706e-014 7.40473e-015
rhumerus -19.0634 7.39252 -60.6996
rradius 82.7801
rwrist -12.1126
rhand -13.2119 -5.81885
rfingers 7.12502
rthumb 12.8889 -35.4008
lclavicle 5.01706e-014 7.40473e-015
lhumerus -29.0341 -24.7411 76.0826
lradius 101.856
lwrist 2.14512
lhand -16.2518 8.85337
lfingers 7.12502
lthumb 9.95719 38.5979
rfemur -28.2227 14.3338 -1.67236
rtibia 16.1225
rfoot 5.19901 -28.0558
rtoes -7.44716
lfemur -3.77861 -12.2846 -10.5186
ltibia 11.2388
lfoot -17.6199 9.27371
ltoes -10.7719
1570
root 1.18609 15.6509 8.70045 12.9421 10.0466 -2.89575
lowerback -2.39153 1.00626 1.92856
upperback -5.71847 1.41159 1.05544
thorax -4.54066 0.65504 -0.0120492
lowerneck -10.0502 0.391901 7.88103
upperneck 27.5714 -0.256287 -2.88932
head 10.4623 0.395126 -2.41178
rclavicle -1.50486e-014 -1.31198e-014
rhumerus -20.4241 7.6732 -60.4574
rradius 82.5379
rwrist -11.8413
rhand -13.0042 -5.66527
rfingers 7.12502
rthumb 13.0892 -35.2345
lclavicle -1.50486e-014 -1.31198e-014
lhumerus -29.5876 -24.1229 75.9716
lradius 99.929
lwrist 2.83208
lhand -16.3538 9.05313
lfingers 7.12502
lthumb 9.85886 38.8023
rfemur -28.3365 14.7897 -1.89509
rtibia 16.079
rfoot 4.32587 -28.6733
rtoes -6.89821
lfemur -4.35688 -12.2129 -10.7489
ltibia 11.8047
lfoot -17.801 9.34896
ltoes -10.2418
1571
root 1.2582 15.6643 8.6454 13.0973 9.67301 -2.98726
lowerback -2.58333 0.874872 1.84292
upperback -5.70232 1.23515 1.23393
thorax -4.42317 0.575769 0.225974
lowerneck -10.1029 0.519067 7.9605
upperneck 27.4323 -0.0698378 -3.01008
head 10.4323 0.469233 -2.44544
rclavicle -1.35655e-014 -1.0138e-014
rhumerus -21.853 7.91417 -60.2892
rradius 82.3022
rwrist -11.6001
rhand -12.7768 -5.54055
rfingers 7.12502
rthumb 13.3083 -35.0956
lclavicle -1.35655e-014 -1.0138e-014
lhumerus -30.0596 -23.5868 75.8922
lradius 97.884
lwrist 3.54651
lhand -16.4181 9.25954
lfingers 7.12502
lthumb 9.79677 39.0116
rfemur -28.3612 14.6306 -1.76018
rtibia 16.179
rfoot 3.7262 -28.5411
rtoes -6.71403
lfemur -4.88207 -12.1218 -10.9789
ltibia 12.3172
lfoot -17.9222 9.46232
ltoes -9.69717
1572
root 1.32618 15.6778 8.59186 13.2259 9.25817 -3.07352
lowerback -2.73799 0.775444 1.74872
upperback -5.68579 1.10198 1.39589
thorax -4.32446 0.517655 0.449764
lowerneck -10.1445 0.630413 8.01972
upperneck 27.297 0.0948187 -3.11321
head 10.4006 0.533714 -2.4717
rclavicle -1.14922e-016 -1.19271e-015
rhumerus -23.3549 8.10421 -60.2108
rradius 82.062
rwrist -11.4072
rhand -12.5442 -5.44935
rfingers 7.12502
rthumb 13.5326 -34.9896
lclavicle -1.14922e-016 -1.19271e-015
lhumerus -30.4727 -23.1178 75.8548
lradius 95.7342
lwrist 4.2192
lhand -16.4291 9.46354
lfingers 7.12502
lthumb 9.7862 39.2162
rfemur -28.3441 14.0309 -1.35244
rtibia 16.477
rfoot 3.42443 -27.7967
rtoes -6.81552
lfemur -5.36595 -12.0145 -11.2228
ltibia 12.8289
lfoot -18.0245 9.63123
ltoes -9.13135
1573
root 1.3906 15.6905 8.5392 13.3257 8.79347 -3.13745
lowerback -2.84256 0.704345 1.6328
upperback -5.67051 1.00751 1.53733
thorax -4.25425 0.478895 0.662949
lowerneck -10.1785 0.732174 8.07724
upperneck 27.1735 0.247718 -3.21856
head 10.3713 0.592939 -2.49991
rclavicle -2.85256e-014 -2.48481e-014
rhumerus -24.9181 8.24403 -60.2277
rradius 81.8032
rwrist -11.2788
rhand -12.3212 -5.3726
rfingers 7.12502
rthumb 13.7475 -34.8984
lclavicle -2.85256e-014 -2.48481e-014
lhumerus -30.8474 -22.6906 75.8579
lradius 93.5077
lwrist 4.74281
lhand -16.3681 9.64967
lfingers 7.12502
lthumb 9.84508 39.3995
rfemur -28.2959 13.1337 -0.763818
rtibia 16.9514
rfoot 3.39292 -26.5861
rtoes -7.2422
lfemur -5.79256 -11.8944 -11.5017
ltibia 13.3208
lfoot -18.108 9.84851
ltoes -8.55077
1574
root 1.45196 15.7018 8.48679 13.3993 8.27929 -3.18018
lowerback -2.8966 0.658124 1.50393
upperback -5.6519 0.946925 1.65541
thorax -4.20825 0.456748 0.858174
lowerneck -10.2209 0.82919 8.14677
upperneck 27.0632 0.392848 -3.33211
head 10.3484 0.649322 -2.53422
rclavicle 1.4825e-014 8.15017e-015
rhumerus -26.5115 8.32037 -60.3446
rradius 81.5074
rwrist -11.2112
rhand -12.1187 -5.31117
rfingers 7.12502
rthumb 13.9426 -34.8237
lclavicle 1.4825e-014 8.15017e-015
lhumerus -31.1929 -22.2817 75.891
lradius 91.222
lwrist 4.99787
lhand -16.2339 9.7928
lfingers 7.12502
lthumb 9.97446 39.5365
rfemur -28.2319 12.0403 -0.0524715
rtibia 17.5826
rfoot 3.44288 -25.0389
rtoes -7.71721
lfemur -6.16948 -11.7586 -11.8115
ltibia 13.7993
lfoot -18.1821 10.0974
ltoes -7.98158
1575
root 1.51077 15.711 8.43434 13.4427 7.72437 -3.20358
lowerback -2.8925 0.632766 1.37535
upperback -5.63137 0.91489 1.74656
thorax -4.19239 0.447959 1.02452
lowerneck -10.2665 0.923539 8.23772
upperneck 26.9628 0.53199 -3.4554
head 10.3299 0.704349 -2.57651
rclavicle 1.32751e-014 1.13307e-014
rhumerus -28.1208 8.3248 -60.5612
rradius 81.161
rwrist -11.1957
rhand -11.9648 -5.2441
rfingers 7.12502
rthumb 14.0909 -34.7464
lclavicle 1.32751e-014 1.13307e-014
lhumerus -31.5345 -21.8816 75.9457
lradius 88.8953
lwrist 4.8731
lhand -16.0346 9.8679
lfingers 7.12502
lthumb 10.1667 39.6023
rfemur -28.1541 10.822 0.740061
rtibia 18.3525
rfoot 3.35049 -23.312
rtoes -8.07482
lfemur -6.50294 -11.6139 -12.1466
ltibia 14.2805
lfoot -18.2657 10.3631
ltoes -7.41998
1576
root 1.56757 15.7177 8.38201 13.455 7.13573 -3.21378
lowerback -2.83527 0.624486 1.26039
upperback -5.60421 0.905959 1.81197
thorax -4.19902 0.449386 1.15595
lowerneck -10.33 1.02116 8.3477
upperneck 26.8733 0.670665 -3.5811
head 10.3194 0.761013 -2.62314
rclavicle 4.01297e-015 -2.96189e-014
rhumerus -29.7152 8.2555 -60.8668
rradius 80.7523
rwrist -11.2099
rhand -11.8441 -5.1892
rfingers 7.12502
rthumb 14.2072 -34.6833
lclavicle 4.01297e-015 -2.96189e-014
lhumerus -31.8643 -21.4956 76.0126
lradius 86.5102
lwrist 4.31916
lhand -15.8223 9.83928
lfingers 7.12502
lthumb 10.3716 39.5635
rfemur -28.0588 9.51381 1.59293
rtibia 19.2401
rfoot 2.97591 -21.5011
rtoes -8.27415
lfemur -6.80301 -11.462 -12.4984
ltibia 14.7854
lfoot -18.3732 10.637
ltoes -6.8878
1577
root 1.62272 15.7217 8.3304 13.4277 6.54125 -3.22342
lowerback -2.72925 0.623618 1.18212
upperback -5.56667 0.906964 1.85406
thorax -4.2215 0.453602 1.24218
lowerneck -10.398 1.12286 8.47835
upperneck 26.7786 0.808983 -3.70289
head 10.3086 0.819915 -2.67178
rclavicle -7.93275e-015 -3.81667e-014
rhumerus -31.2729 8.11066 -61.2542
rradius 80.2718
rwrist -11.2285
rhand -11.7438 -5.15177
rfingers 7.12502
rthumb 14.3039 -34.6391
lclavicle -7.93275e-015 -3.81667e-014
lhumerus -32.195 -21.1174 76.0841
lradius 84.0679
lwrist 3.33215
lhand -15.6229 9.68907
lfingers 7.12502
lthumb 10.5639 39.4036
rfemur -27.9249 8.17108 2.48842
rtibia 20.2301
rfoot 2.23305 -19.7145
rtoes -8.36948
lfemur -7.0728 -11.3112 -12.8462
ltibia 15.3251
lfoot -18.5147 10.8993
ltoes -6.38577
1578
root 1.67656 15.7231 8.28013 13.3613 5.93987 -3.2473
lowerback -2.58461 0.630747 1.15646
upperback -5.51653 0.918622 1.87866
thorax -4.25171 0.460482 1.28039
lowerneck -10.4695 1.22863 8.62191
upperneck 26.6722 0.947157 -3.81556
head 10.2949 0.880793 -2.71904
rclavicle 2.98177e-016 2.00773e-014
rhumerus -32.7671 7.89646 -61.7075
rradius 79.7062
rwrist -11.2205
rhand -11.6309 -5.1596
rfingers 7.12502
rthumb 14.4127 -34.6392
lclavicle 2.98177e-016 2.00773e-014
lhumerus -32.5226 -20.743 76.1562
lradius 81.5681
lwrist 1.98868
lhand -15.463 9.42389
lfingers 7.12502
lthumb 10.7182 39.1305
rfemur -27.7574 6.84374 3.41
rtibia 21.312
rfoot 1.13313 -18.012
rtoes -8.48054
lfemur -7.30922 -11.1682 -13.1754
ltibia 15.8983
lfoot -18.6944 11.1623
ltoes -5.91372
1579
root 1.72902 15.7226 8.23166 13.2699 5.33129 -3.29872
lowerback -2.42377 0.64366 1.18955
upperback -5.45603 0.937954 1.89354
thorax -4.27936 0.468512 1.27538
lowerneck -10.5494 1.3437 8.77634
upperneck 26.556 1.0925 -3.91905
head 10.2804 0.946804 -2.76375
rclavicle -3.34828e-015 5.36719e-015
rhumerus -34.1741 7.62206 -62.2161
rradius 79.0454
rwrist -11.1678
rhand -11.4661 -5.23342
rfingers 7.12502
rthumb 14.5714 -34.7016
lclavicle -3.34828e-015 5.36719e-015
lhumerus -32.8499 -20.3606 76.2257
lradius 79.0405
lwrist 0.437158
lhand -15.2918 9.13306
lfingers 7.12502
lthumb 10.8833 38.831
rfemur -27.569 5.57925 4.34156
rtibia 22.4722
rfoot -0.245581 -16.4312
rtoes -8.71156
lfemur -7.52237 -11.0249 -13.4688
ltibia 16.4951
lfoot -18.9082 11.4218
ltoes -5.45201
1580
root 1.77985 15.7209 8.18513 13.1775 4.71668 -3.36924
lowerback -2.27611 0.658788 1.26532
upperback -5.39241 0.959863 1.89995
thorax -4.29553 0.475905 1.23778
lowerneck -10.6129 1.46599 8.93439
upperneck 26.4176 1.24467 -4.00879
head 10.2557 1.01749 -2.80275
rclavicle 1.49275e-014 3.37934e-014
rhumerus -35.4882 7.2996 -62.777
rradius 78.2821
rwrist -11.071
rhand -11.2496 -5.34743
rfingers 7.12502
rthumb 14.78 -34.8004
lclavicle 1.49275e-014 3.37934e-014
lhumerus -33.1981 -19.9459 76.2957
lradius 76.5388
lwrist -1.14427
lhand -15.0715 8.86237
lfingers 7.12502
lthumb 11.0958 38.549
rfemur -27.3793 4.40631 5.25103
rtibia 23.694
rfoot -1.78615 -15.0042
rtoes -9.091
lfemur -7.72894 -10.8839 -13.7313
ltibia 17.0984
lfoot -19.1444 11.6843
ltoes -4.99685
